HIERARCHY
ROOT Hips
{
	OFFSET -0.001795 -0.223333 0.028219
	CHANNELS 6 Xposition Yposition Zposition Zrotation Yrotation Xrotation 
	JOINT LeftUpLeg
	{
		OFFSET 0.069520 -0.091406 -0.006815
		CHANNELS 3 Zrotation Yrotation Xrotation
		JOINT LeftLeg
		{
			OFFSET 0.034277 -0.375199 -0.004496
			CHANNELS 3 Zrotation Yrotation Xrotation
			JOINT LeftFoot
			{
				OFFSET -0.013596 -0.397961 -0.043693
				CHANNELS 3 Zrotation Yrotation Xrotation
				JOINT LeftToe
				{
					OFFSET 0.026358 -0.055791 0.119288
					CHANNELS 3 Zrotation Yrotation Xrotation
					End Site
					{
						OFFSET 0.000000 0.000000 0.000000
					}
				}
			}
		}
	}
	JOINT RightUpLeg
	{
		OFFSET -0.067670 -0.090522 -0.004320
		CHANNELS 3 Zrotation Yrotation Xrotation
		JOINT RightLeg
		{
			OFFSET -0.038290 -0.382569 -0.008850
			CHANNELS 3 Zrotation Yrotation Xrotation
			JOINT RightFoot
			{
				OFFSET 0.015774 -0.398415 -0.042312
				CHANNELS 3 Zrotation Yrotation Xrotation
				JOINT RightToe
				{
					OFFSET -0.025372 -0.048144 0.123348
					CHANNELS 3 Zrotation Yrotation Xrotation
					End Site
					{
						OFFSET 0.000000 0.000000 0.000000
					}
				}
			}
		}
	}
	JOINT Spine
	{
		OFFSET -0.002533 0.108963 -0.026696
		CHANNELS 3 Zrotation Yrotation Xrotation
		JOINT Spine1
		{
			OFFSET 0.005487 0.135180 0.001092
			CHANNELS 3 Zrotation Yrotation Xrotation
			JOINT Spine2
			{
				OFFSET 0.001457 0.052922 0.025425
				CHANNELS 3 Zrotation Yrotation Xrotation
				JOINT Neck
				{
					OFFSET -0.002778 0.213870 -0.042857
					CHANNELS 3 Zrotation Yrotation Xrotation
					JOINT Head
					{
						OFFSET 0.005152 0.064970 0.051349
						CHANNELS 3 Zrotation Yrotation Xrotation
						End Site
						{
							OFFSET 0.000000 0.000000 0.000000
						}
					}
				}
				JOINT LeftShoulder
				{
					OFFSET 0.078845 0.121749 -0.034090
					CHANNELS 3 Zrotation Yrotation Xrotation
					JOINT LeftArm
					{
						OFFSET 0.090977 0.030469 -0.008868
						CHANNELS 3 Zrotation Yrotation Xrotation
						JOINT LeftForeArm
						{
							OFFSET 0.259612 -0.012772 -0.027456
							CHANNELS 3 Zrotation Yrotation Xrotation
							JOINT LeftHand
							{
								OFFSET 0.249234 0.008986 -0.001171
								CHANNELS 3 Zrotation Yrotation Xrotation
								End Site
								{
									OFFSET 0.000000 0.000000 0.000000
								}
							}
						}
					}
				}
				JOINT RightShoulder
				{
					OFFSET -0.081759 0.118833 -0.038615
					CHANNELS 3 Zrotation Yrotation Xrotation
					JOINT RightArm
					{
						OFFSET -0.096012 0.032551 -0.009143
						CHANNELS 3 Zrotation Yrotation Xrotation
						JOINT RightForeArm
						{
							OFFSET -0.253742 -0.013329 -0.021401
							CHANNELS 3 Zrotation Yrotation Xrotation
							JOINT RightHand
							{
								OFFSET -0.255298 0.007772 -0.005559
								CHANNELS 3 Zrotation Yrotation Xrotation
								End Site
								{
									OFFSET 0.000000 0.000000 0.000000
								}
							}
						}
					}
				}
			}
		}
	}
}
MOTION
Frames: 13
Frame Time: 0.050000
0.000000 0.878068 0.000000 2.757500 2.559660 41.590139 11.940907 -0.530641 -64.407211 -9.511584 2.048187 20.572509 7.203657 17.869596 11.015953 0.000000 0.000000 0.000000 -14.258386 -2.562212 -68.568847 5.460949 -0.967442 21.609130 4.964008 7.842050 8.777717 0.000000 0.000000 0.000000 3.505390 -6.381565 57.305291 1.704416 -0.259924 -10.661734 -4.571520 3.893030 18.575055 11.539652 -5.945794 -13.014933 0.000000 0.000000 0.000000 1.015550 8.538785 -3.874092 -68.673270 6.789372 -13.701700 -57.237288 -30.656501 17.831864 0.000000 0.000000 0.000000 1.303991 -9.008884 -3.906847 66.074365 -1.527407 -6.995793 73.393417 67.330374 59.446550 0.000000 0.000000 0.000000 
-0.002600 0.871615 -0.006061 1.811194 2.298028 45.676559 14.266988 1.049216 -68.117511 -10.220358 2.252730 19.554227 6.927626 17.476673 10.444975 0.000000 0.000000 0.000000 -12.293203 -1.452750 -72.748364 4.173904 -0.504411 20.108204 3.456364 4.217580 8.942369 0.000000 0.000000 0.000000 1.517706 -4.735246 55.686882 4.695326 -1.414039 -7.374463 -5.255127 5.893618 17.504906 11.910249 -7.306549 -7.390799 0.000000 0.000000 0.000000 0.978984 3.009087 -1.767614 -67.845632 10.005454 -15.661277 -65.168617 -41.700423 27.195275 0.000000 0.000000 0.000000 3.233840 -9.449978 -4.136259 64.242955 -2.657972 -6.947118 60.464529 76.831293 57.185928 0.000000 0.000000 0.000000 
-0.004215 0.865766 -0.010479 2.060461 1.761920 46.056379 14.338398 1.336907 -69.104480 -9.783844 2.219424 20.758610 5.851586 15.323169 8.798183 0.000000 0.000000 0.000000 -13.654827 -2.308818 -75.085539 7.421235 -1.592779 23.424128 1.790857 1.094583 7.222256 0.000000 0.000000 0.000000 0.326134 -4.044830 59.075497 6.836245 -2.181530 -7.230349 -6.043197 7.588471 16.173515 11.896309 -8.259121 -3.708604 0.000000 0.000000 0.000000 1.386338 1.065361 -1.002703 -66.347112 9.676691 -15.216143 -60.766024 -44.808419 26.542843 0.000000 0.000000 0.000000 1.389647 -10.041776 -4.113569 62.737131 -4.004627 -6.947975 82.904796 72.549921 74.267860 0.000000 0.000000 0.000000 
-0.005082 0.860307 -0.012622 2.621069 3.094427 47.459735 15.186284 1.289183 -72.145883 -11.379168 2.655182 20.707512 7.183114 18.513962 12.733009 0.000000 0.000000 0.000000 -13.130307 -3.078204 -78.161611 6.929533 -1.561468 25.538956 1.049744 -1.193571 8.459044 0.000000 0.000000 0.000000 0.379106 -4.762732 59.396612 6.252859 -2.289648 -3.783049 -6.029602 5.076000 14.587559 9.306261 -6.683986 -2.064246 0.000000 0.000000 0.000000 1.118037 0.927337 -0.842314 -66.553470 9.668413 -14.788415 -59.269477 -49.825201 29.737297 0.000000 0.000000 0.000000 -0.133917 -9.061786 -3.685087 64.402807 -3.096056 -6.863697 80.006507 76.950589 74.779054 0.000000 0.000000 0.000000 
-0.005123 0.852283 -0.012961 3.321401 4.144964 47.386837 15.118675 0.705446 -73.700705 -12.778866 3.121532 21.755361 9.311949 22.470122 13.483363 0.000000 0.000000 0.000000 -13.555554 -4.260407 -79.391625 7.369366 -1.882442 28.006140 0.696999 -1.530735 7.412954 0.000000 0.000000 0.000000 0.364540 -5.420735 61.043379 6.444243 -2.384624 -3.619813 -6.682552 4.331773 14.624924 8.193226 -6.183743 -0.619642 0.000000 0.000000 0.000000 -1.030934 -1.653312 -0.012756 -63.900807 7.301877 -12.601953 -56.334843 -56.217511 32.527786 0.000000 0.000000 0.000000 1.751240 -8.308608 -3.587546 62.619799 -1.687803 -6.235892 71.902219 74.226771 64.348740 0.000000 0.000000 0.000000 
-0.004248 0.844857 -0.012148 3.296489 4.761790 46.909266 14.788118 0.262087 -74.957458 -12.499173 3.236171 24.362686 10.095825 23.995059 12.241771 0.000000 0.000000 0.000000 -13.645299 -4.816899 -80.570140 7.654059 -2.157061 30.617810 0.918565 -0.886557 7.169450 0.000000 0.000000 0.000000 0.216865 -5.791501 62.854296 5.984415 -2.333517 -2.283176 -6.289780 4.186307 13.528148 8.336735 -6.458389 0.213278 0.000000 0.000000 0.000000 -3.919909 -4.152461 0.765918 -60.903213 6.047105 -10.980310 -50.874210 -60.872644 31.957915 0.000000 0.000000 0.000000 2.457404 -7.734494 -3.406198 62.127188 -1.287676 -5.996893 58.437760 73.256763 51.358392 0.000000 0.000000 0.000000 
-0.002953 0.837690 -0.011213 3.500294 5.690625 46.737711 15.032975 -0.049201 -76.009023 -12.913742 3.505107 26.194011 10.022779 24.160338 10.483684 0.000000 0.000000 0.000000 -13.957434 -5.843797 -81.738556 8.492925 -2.697598 33.051642 0.710866 -1.220396 6.828373 0.000000 0.000000 0.000000 -0.173711 -6.225539 65.210308 6.143215 -2.290061 -3.579631 -6.217900 4.517999 14.013762 8.709589 -6.145593 -2.455317 0.000000 0.000000 0.000000 -2.673892 -4.598030 1.047951 -62.437829 5.197031 -11.049210 -50.904176 -61.772186 32.501702 0.000000 0.000000 0.000000 1.737447 -6.806738 -2.865316 64.338203 -0.433471 -5.660101 45.533064 69.382322 38.022705 0.000000 0.000000 0.000000 
-0.002042 0.832164 -0.010660 3.271694 6.303973 46.923378 15.875642 0.271311 -76.950434 -13.766846 3.912940 27.238928 10.095341 24.518085 9.317467 0.000000 0.000000 0.000000 -13.473517 -6.060075 -83.504010 9.010434 -3.132272 35.917775 -0.153596 -3.079584 6.206910 0.000000 0.000000 0.000000 -0.855360 -6.167600 66.800884 6.238054 -2.338751 -3.506127 -5.907148 6.035930 13.203780 9.855667 -6.593544 -3.950690 0.000000 0.000000 0.000000 -1.660674 -6.015163 1.576465 -63.734427 4.647253 -11.248529 -52.610818 -60.979212 32.610020 0.000000 0.000000 0.000000 0.570057 -6.877425 -2.695406 66.917948 -1.867935 -6.110091 40.019980 63.750204 30.570657 0.000000 0.000000 0.000000 
-0.001896 0.826471 -0.010693 3.013449 6.891090 46.441078 16.390011 0.375381 -77.736461 -14.113216 4.240582 29.215529 10.117597 24.655991 8.137975 0.000000 0.000000 0.000000 -12.512860 -5.807497 -84.916515 9.123923 -3.315996 38.124558 -1.355099 -6.359544 7.399978 0.000000 0.000000 0.000000 -1.595729 -6.035703 68.569758 6.058000 -2.162115 -4.775374 -5.084499 6.136167 14.390290 9.474650 -5.965606 -5.588903 0.000000 0.000000 0.000000 -0.410385 -3.744326 0.766394 -64.217899 5.347864 -11.957896 -54.426071 -57.652663 31.745750 0.000000 0.000000 0.000000 -0.671414 -7.623715 -2.939615 69.771705 -3.745612 -7.419857 35.377926 57.157810 23.688910 0.000000 0.000000 0.000000 
-0.002592 0.819955 -0.011984 2.370951 6.890961 46.013543 17.568411 1.345642 -78.627988 -15.316164 5.005328 31.213793 10.441600 25.212593 7.397914 0.000000 0.000000 0.000000 -11.847628 -5.387132 -86.863845 10.148127 -3.904544 40.021392 -2.863768 -10.509403 10.265234 0.000000 0.000000 0.000000 -2.631804 -5.233714 69.780889 6.422173 -2.343610 -4.356564 -5.205844 6.937458 13.800491 9.744379 -6.030855 -5.979465 0.000000 0.000000 0.000000 0.344692 -2.583284 0.335963 -63.843637 6.770544 -12.759140 -59.222191 -55.746374 33.180098 0.000000 0.000000 0.000000 -0.179790 -7.923927 -3.066683 70.013181 -5.953507 -8.528425 35.343413 53.477380 21.768181 0.000000 0.000000 0.000000 
-0.003877 0.809079 -0.014496 1.973117 7.200689 45.851785 19.037774 2.434628 -80.505811 -17.057612 6.197045 33.967268 10.792890 25.886095 6.549811 0.000000 0.000000 0.000000 -10.950256 -4.985179 -88.981550 10.603392 -4.315347 42.845924 -4.634300 -14.211591 9.833623 0.000000 0.000000 0.000000 -3.492865 -4.778317 71.296121 6.589909 -2.313456 -5.354600 -5.036270 7.190738 14.574818 9.770347 -6.011593 -6.186580 0.000000 0.000000 0.000000 1.301988 -0.809353 -0.242170 -62.310692 7.629669 -12.927138 -64.052002 -54.821592 35.492381 0.000000 0.000000 0.000000 0.689453 -8.450351 -3.352750 69.539999 -7.429339 -9.411302 34.059301 51.188293 19.940471 0.000000 0.000000 0.000000 
-0.005133 0.798289 -0.017182 1.268003 7.133236 45.678156 20.906501 4.065480 -81.219820 -19.373752 7.519145 34.939590 11.291687 26.966834 4.867900 0.000000 0.000000 0.000000 -10.549506 -4.644231 -90.859999 12.442233 -5.460344 45.028812 -6.858294 -18.830351 9.315568 0.000000 0.000000 0.000000 -4.351101 -3.996045 72.240457 6.578511 -2.370924 -4.724216 -4.807236 8.175063 13.755963 10.834632 -6.843471 -5.725078 0.000000 0.000000 0.000000 2.130891 0.582077 -0.696924 -60.896485 7.831732 -12.750026 -68.709645 -54.007732 37.499402 0.000000 0.000000 0.000000 2.035281 -9.132925 -3.689404 67.972109 -8.097355 -9.362156 35.021163 50.275466 20.242981 0.000000 0.000000 0.000000 
-0.005884 0.786417 -0.018539 0.924970 7.167359 44.979942 22.784341 5.700429 -82.346442 -22.378931 9.534188 37.234258 11.806344 27.754058 4.426594 0.000000 0.000000 0.000000 -11.000534 -5.198734 -92.208305 15.008769 -7.140460 46.915458 -8.829821 -22.723492 9.958854 0.000000 0.000000 0.000000 -4.865361 -3.567060 72.869290 6.865502 -2.537286 -4.229316 -5.293366 7.902131 13.523114 11.006652 -6.953093 -5.797120 0.000000 0.000000 0.000000 2.274556 0.697330 -0.661593 -58.977427 8.103120 -12.317644 -74.274470 -55.777440 42.844333 0.000000 0.000000 0.000000 3.545169 -8.226726 -3.359820 66.217215 -7.953687 -9.267619 38.238577 51.850142 22.794661 0.000000 0.000000 0.000000 
